<svg xmlns="http://www.w3.org/2000/svg" width="779" height="624" viewBox="0 0 779 624">
<g>
<path d="M 430.50 490.32 C418.31,487.58 410.97,479.66 411.02,469.29 C411.09,454.58 424.65,445.54 442.79,448.11 C453.14,449.58 459.30,453.69 462.45,461.23 C465.86,469.38 463.12,479.52 456.00,485.15 C450.49,489.51 438.08,492.02 430.50,490.32 ZM 443.17 481.97 C455.14,478.64 456.62,462.08 445.36,457.38 C443.55,456.62 439.69,456.00 436.78,456.00 C427.64,456.01 421.63,461.39 421.75,469.46 C421.83,474.99 424.35,478.80 429.46,481.12 C434.05,483.21 437.87,483.44 443.17,481.97 ZM 618.72 489.97 C602.09,485.79 595.22,468.28 605.51,456.26 C610.52,450.40 617.52,447.72 627.77,447.71 C634.93,447.70 636.79,448.09 641.73,450.61 C645.48,452.53 648.46,455.00 650.46,457.85 C653.13,461.64 653.50,463.01 653.50,469.00 C653.50,474.99 653.13,476.36 650.46,480.15 C644.64,488.44 630.29,492.87 618.72,489.97 ZM 634.67 481.06 C645.24,476.26 645.71,462.41 635.46,457.55 C630.40,455.15 620.43,455.84 616.15,458.90 C610.88,462.65 609.71,470.85 613.59,476.78 C615.57,479.80 622.43,482.96 627.00,482.96 C628.92,482.96 632.38,482.10 634.67,481.06 ZM 55.00 469.00 L 55.00 448.00 L 75.00 448.00 L 95.00 448.00 L 95.00 452.00 L 95.00 456.00 L 80.50 456.00 L 66.00 456.00 L 66.00 460.50 L 66.00 465.00 L 78.50 465.00 L 91.00 465.00 L 91.00 469.00 L 91.00 473.00 L 78.50 473.00 L 66.00 473.00 L 66.00 477.50 L 66.00 482.00 L 80.39 482.00 L 94.79 482.00 L 95.17 486.00 L 95.55 490.00 L 75.28 490.00 L 55.00 490.00 L 55.00 469.00 ZM 118.35 478.25 C108.83,458.18 105.00,449.75 105.00,448.86 C105.00,448.39 107.40,448.00 110.34,448.00 L 115.68 448.00 L 122.58 463.50 C126.37,472.02 129.74,479.00 130.05,479.00 C130.36,479.00 133.70,472.02 137.45,463.50 L 144.28 448.00 L 150.14 448.00 C153.36,448.00 156.00,448.12 156.00,448.27 C156.00,448.58 139.71,482.00 137.24,486.75 C135.62,489.85 135.28,490.00 129.73,490.00 L 123.92 490.00 L 118.35 478.25 ZM 164.00 469.00 L 164.00 448.00 L 183.56 448.00 L 203.11 448.00 L 202.81 452.11 L 202.50 456.22 L 188.19 456.06 L 173.88 455.90 L 174.19 460.20 L 174.50 464.50 L 186.75 464.78 L 199.00 465.06 L 199.00 469.03 L 199.00 473.00 L 186.50 473.00 L 174.00 473.00 L 174.00 477.50 L 174.00 482.00 L 188.50 482.00 L 203.00 482.00 L 203.00 486.00 L 203.00 490.00 L 183.50 490.00 L 164.00 490.00 L 164.00 469.00 ZM 215.00 469.00 L 215.00 448.00 L 220.92 448.00 L 226.85 448.00 L 239.17 461.66 L 251.50 475.31 L 251.78 461.66 L 252.06 448.00 L 257.03 448.00 L 262.00 448.00 L 262.00 469.00 L 262.00 490.00 L 256.68 490.00 L 251.36 490.00 L 238.43 475.36 L 225.50 460.72 L 225.22 475.36 L 224.95 490.00 L 219.97 490.00 L 215.00 490.00 L 215.00 469.00 ZM 288.00 473.50 L 288.00 457.00 L 279.50 457.00 L 271.00 457.00 L 271.00 452.48 L 271.00 447.96 L 293.25 448.23 L 315.50 448.50 L 315.81 452.75 L 316.11 457.00 L 307.29 457.00 L 298.46 457.00 L 298.73 473.50 L 299.01 490.00 L 293.51 490.00 L 288.00 490.00 L 288.00 473.50 ZM 353.23 469.25 L 353.50 448.50 L 358.50 448.50 L 363.50 448.50 L 363.38 456.25 L 363.26 464.00 L 376.63 464.00 L 390.00 464.00 L 390.00 456.00 L 390.00 448.00 L 395.00 448.00 L 400.00 448.00 L 400.00 469.00 L 400.00 490.00 L 394.75 490.00 L 389.50 490.00 L 389.50 481.25 L 389.50 472.50 L 376.50 472.50 L 363.50 472.50 L 363.86 481.25 L 364.23 490.00 L 358.59 490.00 L 352.96 490.00 L 353.23 469.25 ZM 475.00 469.00 L 475.00 448.00 L 489.06 448.00 C505.47,448.00 510.72,449.06 514.65,453.16 C517.14,455.75 517.50,456.90 517.50,462.15 C517.50,467.68 517.24,468.40 514.23,471.08 C512.44,472.69 510.30,474.00 509.48,474.00 C507.04,474.00 507.71,475.28 514.05,482.81 L 520.10 490.00 L 513.57 490.00 L 507.05 490.00 L 501.37 482.45 L 495.69 474.91 L 490.59 475.20 L 485.50 475.50 L 485.21 482.75 L 484.91 490.00 L 479.96 490.00 L 475.00 490.00 L 475.00 469.00 ZM 504.00 466.71 C506.61,465.40 507.71,461.56 506.16,459.18 C504.98,457.37 498.75,456.05 491.25,456.02 L 485.00 456.00 L 485.00 462.00 L 485.00 468.00 L 493.25 467.99 C497.86,467.98 502.60,467.41 504.00,466.71 ZM 530.00 470.00 C530.00,459.00 529.89,449.66 529.75,449.25 C529.61,448.84 531.86,448.36 534.75,448.20 L 540.00 447.90 L 540.00 468.95 L 540.00 490.00 L 535.00 490.00 L 530.00 490.00 L 530.00 470.00 ZM 551.05 486.25 C551.09,482.75 551.98,481.67 564.45,470.00 C571.79,463.12 577.85,457.27 577.90,457.00 C577.96,456.73 572.15,456.64 565.00,456.81 L 552.00 457.11 L 552.00 452.56 L 552.00 448.00 L 572.50 448.00 L 593.00 448.00 L 592.94 451.75 C592.88,455.25 591.95,456.38 579.09,468.50 L 565.30 481.50 L 579.15 481.78 L 593.00 482.05 L 593.00 486.03 L 593.00 490.00 L 572.00 490.00 L 551.00 490.00 L 551.05 486.25 ZM 664.00 469.00 L 664.00 448.00 L 670.32 448.00 L 676.64 448.00 L 688.07 460.60 C694.36,467.53 699.65,473.60 699.83,474.10 C700.02,474.59 700.58,475.00 701.08,475.00 C701.59,475.00 702.00,469.02 702.00,461.50 L 702.00 448.00 L 707.00 448.00 L 712.00 448.00 L 712.00 469.00 L 712.00 490.00 L 706.59 490.00 L 701.18 490.00 L 687.84 474.93 L 674.50 459.86 L 674.22 474.93 L 673.95 490.00 L 668.97 490.00 L 664.00 490.00 L 664.00 469.00 ZM 376.50 403.94 C352.68,401.58 326.09,392.39 306.22,379.63 C298.00,374.36 286.01,364.73 280.11,358.66 L 275.72 354.14 L 279.61 353.45 C281.75,353.07 289.08,351.70 295.89,350.41 L 308.28 348.06 L 316.49 353.99 C332.29,365.40 349.88,373.25 368.33,377.13 C381.77,379.96 405.39,380.21 418.34,377.65 C445.59,372.27 467.98,360.20 486.58,340.89 C502.18,324.69 511.87,306.65 517.97,282.50 C518.95,278.59 519.33,278.31 534.74,270.13 C552.70,260.59 577.39,244.55 590.22,234.10 L 598.94 227.00 L 616.47 227.00 L 634.00 227.00 L 634.00 186.00 L 634.00 145.00 L 685.00 145.00 L 736.00 145.00 L 736.00 257.00 L 736.00 369.00 L 685.00 369.00 L 634.00 369.00 L 634.00 326.50 L 634.00 284.00 L 593.74 284.00 L 553.48 284.00 L 550.11 294.44 C535.26,340.58 500.34,377.30 454.58,394.91 C433.08,403.18 403.49,406.60 376.50,403.94 ZM 29.24 337.40 L 29.50 305.50 L 109.75 305.36 C156.38,305.27 190.00,305.59 190.00,306.11 C190.00,306.60 189.52,307.00 188.94,307.00 C188.35,307.00 176.99,312.31 163.69,318.80 C150.38,325.28 136.48,331.90 132.79,333.50 C122.14,338.12 119.82,338.25 169.00,331.51 C279.20,316.41 402.56,288.80 487.00,260.33 C537.58,243.27 581.19,221.91 612.00,199.11 C616.12,196.05 619.83,193.09 620.23,192.53 C620.73,191.84 620.97,191.87 620.98,192.60 C621.01,194.62 600.94,214.91 591.04,222.87 C535.11,267.86 426.67,313.06 316.00,337.50 C261.84,349.46 214.92,357.15 167.00,361.92 C123.08,366.29 97.53,367.90 60.24,368.67 L 28.97 369.31 L 29.24 337.40 ZM 246.52 303.75 C240.62,284.66 239.60,277.21 239.58,253.00 C239.56,233.47 239.85,229.22 241.74,220.79 C251.95,175.30 282.51,137.25 325.00,117.15 C348.07,106.23 365.21,102.15 391.50,101.31 C407.24,100.81 411.20,101.02 423.00,102.98 C475.29,111.67 518.90,143.65 540.99,189.50 C545.48,198.82 552.00,217.17 552.00,220.48 C552.00,221.35 548.10,223.81 542.50,226.47 C537.28,228.96 532.81,231.00 532.57,231.00 C532.32,231.00 531.82,228.86 531.44,226.25 C529.41,212.04 519.94,189.76 510.00,175.81 C503.01,166.00 487.75,150.77 477.96,143.83 C462.46,132.85 442.25,124.31 422.35,120.33 C410.15,117.89 383.01,117.92 370.54,120.38 C311.51,132.02 269.79,173.94 262.08,229.37 C259.08,250.96 262.64,280.85 270.53,300.27 C271.89,303.61 272.81,306.53 272.58,306.76 C272.19,307.14 251.45,311.88 249.79,311.96 C249.40,311.98 247.93,308.29 246.52,303.75 ZM 29.00 254.50 L 29.00 225.00 L 117.50 225.00 L 206.00 225.00 L 206.00 254.50 L 206.00 284.00 L 117.50 284.00 L 29.00 284.00 L 29.00 254.50 ZM 29.00 174.50 L 29.00 145.00 L 147.70 145.00 L 266.41 145.00 L 262.86 148.75 C251.52,160.74 239.01,182.09 233.56,198.75 L 231.84 204.00 L 130.42 204.00 L 29.00 204.00 L 29.00 174.50 Z" fill="rgba(0,0,0,1)"/>
</g>
</svg>